<?xml version="1.0" encoding="UTF-8" standalone="no"?>
<!-- Created with Inkscape (http://www.inkscape.org/) -->

<svg
   xmlns:dc="http://purl.org/dc/elements/1.1/"
   xmlns:cc="http://creativecommons.org/ns#"
   xmlns:rdf="http://www.w3.org/1999/02/22-rdf-syntax-ns#"
   xmlns:svg="http://www.w3.org/2000/svg"
   xmlns="http://www.w3.org/2000/svg"
   xmlns:sodipodi="http://sodipodi.sourceforge.net/DTD/sodipodi-0.dtd"
   xmlns:inkscape="http://www.inkscape.org/namespaces/inkscape"
   width="1000"
   height="600"
   id="svg2"
   version="1.1"
   inkscape:version="0.48.3.1 r9886"
   sodipodi:docname="Nouveau document 1">
  <defs
     id="defs4" />
  <sodipodi:namedview
     id="base"
     pagecolor="#ffffff"
     bordercolor="#666666"
     borderopacity="1.0"
     inkscape:pageopacity="0.0"
     inkscape:pageshadow="2"
     inkscape:zoom="1.28"
     inkscape:cx="451.78641"
     inkscape:cy="344.41031"
     inkscape:document-units="px"
     inkscape:current-layer="layer1"
     showgrid="true"
     height="600px"
     inkscape:object-paths="true"
     showguides="true"
     inkscape:guide-bbox="true"
     inkscape:snap-intersection-paths="true"
     inkscape:window-width="1855"
     inkscape:window-height="1416"
     inkscape:window-x="65"
     inkscape:window-y="24"
     inkscape:window-maximized="1">
    <inkscape:grid
       empspacing="50"
       visible="true"
       enabled="true"
       snapvisiblegridlinesonly="true"
       type="xygrid"
       id="grid2985" />
  </sodipodi:namedview>
  <metadata
     id="metadata7">
    <rdf:RDF>
      <cc:Work
         rdf:about="">
        <dc:format>image/svg+xml</dc:format>
        <dc:type
           rdf:resource="http://purl.org/dc/dcmitype/StillImage" />
        <dc:title></dc:title>
      </cc:Work>
    </rdf:RDF>
  </metadata>
  <g
     inkscape:label="Calque 1"
     inkscape:groupmode="layer"
     id="layer1"
     transform="translate(0,-452.36218)">
    <path
       style="fill:none;stroke:#000000;stroke-width:1px;stroke-linecap:butt;stroke-linejoin:miter;stroke-opacity:1"
       d="M 200,600 500,0"
       id="path3821"
       inkscape:connector-curvature="0"
       transform="translate(0,452.36218)" />
    <path
       style="fill:none;stroke:#000000;stroke-width:1px;stroke-linecap:butt;stroke-linejoin:miter;stroke-opacity:1"
       d="M 800,600 500,0"
       id="path3823"
       inkscape:connector-curvature="0"
       transform="translate(0,452.36218)" />
    <path
       style="fill:none;stroke:#000000;stroke-width:1px;stroke-linecap:butt;stroke-linejoin:miter;stroke-opacity:1"
       d="M 700,600 500,200 300,600 200,600"
       id="path3825"
       inkscape:connector-curvature="0"
       transform="translate(0,452.36218)" />
    <path
       style="fill:none;stroke:#000000;stroke-width:1px;stroke-linecap:butt;stroke-linejoin:miter;stroke-opacity:1"
       d="m 700,600 100,0"
       id="path3827"
       inkscape:connector-curvature="0"
       transform="translate(0,452.36218)" />
    <path
       style="fill:none;stroke:#000000;stroke-width:1px;stroke-linecap:butt;stroke-linejoin:miter;stroke-opacity:1"
       d="M 100,600 300,200"
       id="path3829"
       inkscape:connector-curvature="0"
       transform="translate(0,452.36218)" />
    <path
       style="fill:#000000;stroke:#000000;stroke-width:1px;stroke-linecap:butt;stroke-linejoin:miter;stroke-opacity:1"
       d="M 300,200 500,600 700,200 900,600 1000,600 750,100 650,100 500,400 350,100 250,100 0,600 l 100,0"
       id="path3831"
       inkscape:connector-curvature="0"
       transform="translate(0,452.36218)" />
    <path
       style="fill:#000000"
       d="m 349.47592,301.1852 c -49.75588,99.15096 -99.25506,198.45866 -148.91226,297.66986 1.33452,3.31589 7.60698,0.51428 10.78337,1.43631 29.34493,0 58.68987,0 88.0348,0 4.2945,-5.74709 6.7731,-13.14533 10.37072,-19.52609 30.07173,-60.14348 60.14348,-120.28696 90.21522,-180.43045 -4.15826,-10.391 -10.04423,-20.37415 -14.86271,-30.60929 -11.36815,-22.73629 -22.73629,-45.47259 -34.10444,-68.20888 -0.4355,-0.63297 -0.89964,-0.57476 -1.5247,-0.33146 z"
       id="path3833"
       inkscape:connector-curvature="0"
       transform="translate(0,452.36218)" />
    <path
       style="fill:#000000"
       d="M 499.38256,1.3719308 C 466.18475,67.406705 433.24366,133.59825 400.14454,199.69329 c 4.15825,10.391 10.04423,20.37415 14.86271,30.60929 11.36814,22.73629 22.73629,45.47259 34.10444,68.20888 3.53427,0.86171 3.972,-6.51922 6.19495,-8.85438 14.90558,-29.81115 29.81116,-59.62231 44.71674,-89.43346 16.39941,32.56027 32.38923,65.34568 49.18811,97.69122 2.92719,1.1489 3.12851,-4.20958 4.75319,-5.81748 15.51478,-30.39999 30.62957,-61.01161 45.93753,-91.52019 -4.15826,-10.39101 -10.04423,-20.37415 -14.86271,-30.6093 C 556.99542,113.87971 528.95134,57.79155 500.90726,1.7033871 c -0.4355,-0.6329724 -0.89964,-0.574761 -1.5247,-0.3314563 z"
       id="path3835"
       inkscape:connector-curvature="0"
       transform="translate(0,452.36218)" />
    <path
       style="fill:#000000"
       d="m 649.2892,301.1852 c -16.52185,32.68293 -32.78699,65.52261 -49.21022,98.26575 4.15826,10.391 10.04423,20.37415 14.86271,30.60929 28.27978,56.55957 56.55957,113.11914 84.83935,169.6787 6.81235,1.29172 14.31333,0.18228 21.38998,0.55243 25.68819,-0.12448 51.45974,0.32532 77.09674,-0.53033 2.31423,-2.35121 -2.40599,-6.18078 -2.88066,-9.01021 -48.03398,-96.46922 -96.37842,-192.82442 -144.5732,-289.23417 -0.4355,-0.63297 -0.89964,-0.57476 -1.5247,-0.33146 z"
       id="path3837"
       inkscape:connector-curvature="0"
       transform="translate(0,452.36218)" />
  </g>
</svg>
